<mxfile host="app.diagrams.net" agent="Mozilla/5.0 (Macintosh; Intel Mac OS X 10_15_7) AppleWebKit/537.36 (KHTML, like Gecko) Chrome/135.0.0.0 Safari/537.36" version="26.2.13">
  <diagram name="Page-1" id="XGggFpiHlIf7Oq0SXzBW">
    <mxGraphModel dx="1334" dy="1479" grid="1" gridSize="10" guides="1" tooltips="1" connect="1" arrows="1" fold="1" page="1" pageScale="1" pageWidth="850" pageHeight="1100" math="0" shadow="0">
      <root>
        <mxCell id="0" />
        <mxCell id="1" parent="0" />
        <mxCell id="lQojN_XJNmVnjLz6gcaS-190" value="" style="rounded=0;whiteSpace=wrap;html=1;strokeColor=none;" vertex="1" parent="1">
          <mxGeometry y="260" width="1080" height="490" as="geometry" />
        </mxCell>
        <mxCell id="lQojN_XJNmVnjLz6gcaS-184" value="" style="ellipse;whiteSpace=wrap;html=1;sketch=1;curveFitting=1;jiggle=2;rotation=0;fillColor=none;" vertex="1" parent="1">
          <mxGeometry x="920" y="570" width="110" height="80" as="geometry" />
        </mxCell>
        <mxCell id="lQojN_XJNmVnjLz6gcaS-41" value="gold.dim_customers" style="shape=table;startSize=30;container=1;collapsible=1;childLayout=tableLayout;fixedRows=1;rowLines=0;fontStyle=1;align=center;resizeLast=1;html=1;sketch=1;curveFitting=1;jiggle=2;fillColor=#fff2cc;strokeColor=#d6b656;rounded=1;fontFamily=Comic Sans MS;fontSize=15;shadow=1;" vertex="1" parent="1">
          <mxGeometry x="40" y="320" width="200" height="330" as="geometry" />
        </mxCell>
        <mxCell id="lQojN_XJNmVnjLz6gcaS-42" value="" style="shape=tableRow;horizontal=0;startSize=0;swimlaneHead=0;swimlaneBody=0;fillColor=none;collapsible=0;dropTarget=0;points=[[0,0.5],[1,0.5]];portConstraint=eastwest;top=0;left=0;right=0;bottom=1;sketch=1;curveFitting=1;jiggle=2;strokeColor=#d6b656;fontFamily=Comic Sans MS;fontSize=15;" vertex="1" parent="lQojN_XJNmVnjLz6gcaS-41">
          <mxGeometry y="30" width="200" height="30" as="geometry" />
        </mxCell>
        <mxCell id="lQojN_XJNmVnjLz6gcaS-43" value="PK" style="shape=partialRectangle;connectable=0;fillColor=none;top=0;left=0;bottom=0;right=0;fontStyle=1;overflow=hidden;whiteSpace=wrap;html=1;sketch=1;curveFitting=1;jiggle=2;strokeColor=#d6b656;fontFamily=Comic Sans MS;fontSize=15;" vertex="1" parent="lQojN_XJNmVnjLz6gcaS-42">
          <mxGeometry width="40" height="30" as="geometry">
            <mxRectangle width="40" height="30" as="alternateBounds" />
          </mxGeometry>
        </mxCell>
        <mxCell id="lQojN_XJNmVnjLz6gcaS-44" value="customer_key" style="shape=partialRectangle;connectable=0;fillColor=none;top=0;left=0;bottom=0;right=0;align=left;spacingLeft=6;fontStyle=5;overflow=hidden;whiteSpace=wrap;html=1;sketch=1;curveFitting=1;jiggle=2;strokeColor=#d6b656;fontFamily=Comic Sans MS;fontSize=15;" vertex="1" parent="lQojN_XJNmVnjLz6gcaS-42">
          <mxGeometry x="40" width="160" height="30" as="geometry">
            <mxRectangle width="160" height="30" as="alternateBounds" />
          </mxGeometry>
        </mxCell>
        <mxCell id="lQojN_XJNmVnjLz6gcaS-45" value="" style="shape=tableRow;horizontal=0;startSize=0;swimlaneHead=0;swimlaneBody=0;fillColor=none;collapsible=0;dropTarget=0;points=[[0,0.5],[1,0.5]];portConstraint=eastwest;top=0;left=0;right=0;bottom=0;sketch=1;curveFitting=1;jiggle=2;strokeColor=#d6b656;fontFamily=Comic Sans MS;fontSize=15;" vertex="1" parent="lQojN_XJNmVnjLz6gcaS-41">
          <mxGeometry y="60" width="200" height="30" as="geometry" />
        </mxCell>
        <mxCell id="lQojN_XJNmVnjLz6gcaS-46" value="" style="shape=partialRectangle;connectable=0;fillColor=none;top=0;left=0;bottom=0;right=0;editable=1;overflow=hidden;whiteSpace=wrap;html=1;sketch=1;curveFitting=1;jiggle=2;strokeColor=#d6b656;fontFamily=Comic Sans MS;fontSize=15;" vertex="1" parent="lQojN_XJNmVnjLz6gcaS-45">
          <mxGeometry width="40" height="30" as="geometry">
            <mxRectangle width="40" height="30" as="alternateBounds" />
          </mxGeometry>
        </mxCell>
        <mxCell id="lQojN_XJNmVnjLz6gcaS-47" value="customer_id" style="shape=partialRectangle;connectable=0;fillColor=none;top=0;left=0;bottom=0;right=0;align=left;spacingLeft=6;overflow=hidden;whiteSpace=wrap;html=1;sketch=1;curveFitting=1;jiggle=2;strokeColor=#d6b656;fontFamily=Comic Sans MS;fontSize=15;" vertex="1" parent="lQojN_XJNmVnjLz6gcaS-45">
          <mxGeometry x="40" width="160" height="30" as="geometry">
            <mxRectangle width="160" height="30" as="alternateBounds" />
          </mxGeometry>
        </mxCell>
        <mxCell id="lQojN_XJNmVnjLz6gcaS-48" value="" style="shape=tableRow;horizontal=0;startSize=0;swimlaneHead=0;swimlaneBody=0;fillColor=none;collapsible=0;dropTarget=0;points=[[0,0.5],[1,0.5]];portConstraint=eastwest;top=0;left=0;right=0;bottom=0;sketch=1;curveFitting=1;jiggle=2;strokeColor=#d6b656;fontFamily=Comic Sans MS;fontSize=15;" vertex="1" parent="lQojN_XJNmVnjLz6gcaS-41">
          <mxGeometry y="90" width="200" height="30" as="geometry" />
        </mxCell>
        <mxCell id="lQojN_XJNmVnjLz6gcaS-49" value="" style="shape=partialRectangle;connectable=0;fillColor=none;top=0;left=0;bottom=0;right=0;editable=1;overflow=hidden;whiteSpace=wrap;html=1;sketch=1;curveFitting=1;jiggle=2;strokeColor=#d6b656;fontFamily=Comic Sans MS;fontSize=15;" vertex="1" parent="lQojN_XJNmVnjLz6gcaS-48">
          <mxGeometry width="40" height="30" as="geometry">
            <mxRectangle width="40" height="30" as="alternateBounds" />
          </mxGeometry>
        </mxCell>
        <mxCell id="lQojN_XJNmVnjLz6gcaS-50" value="customer_number" style="shape=partialRectangle;connectable=0;fillColor=none;top=0;left=0;bottom=0;right=0;align=left;spacingLeft=6;overflow=hidden;whiteSpace=wrap;html=1;sketch=1;curveFitting=1;jiggle=2;strokeColor=#d6b656;fontFamily=Comic Sans MS;fontSize=15;" vertex="1" parent="lQojN_XJNmVnjLz6gcaS-48">
          <mxGeometry x="40" width="160" height="30" as="geometry">
            <mxRectangle width="160" height="30" as="alternateBounds" />
          </mxGeometry>
        </mxCell>
        <mxCell id="lQojN_XJNmVnjLz6gcaS-51" value="" style="shape=tableRow;horizontal=0;startSize=0;swimlaneHead=0;swimlaneBody=0;fillColor=none;collapsible=0;dropTarget=0;points=[[0,0.5],[1,0.5]];portConstraint=eastwest;top=0;left=0;right=0;bottom=0;sketch=1;curveFitting=1;jiggle=2;strokeColor=#d6b656;fontFamily=Comic Sans MS;fontSize=15;" vertex="1" parent="lQojN_XJNmVnjLz6gcaS-41">
          <mxGeometry y="120" width="200" height="30" as="geometry" />
        </mxCell>
        <mxCell id="lQojN_XJNmVnjLz6gcaS-52" value="" style="shape=partialRectangle;connectable=0;fillColor=none;top=0;left=0;bottom=0;right=0;editable=1;overflow=hidden;whiteSpace=wrap;html=1;sketch=1;curveFitting=1;jiggle=2;strokeColor=#d6b656;fontFamily=Comic Sans MS;fontSize=15;" vertex="1" parent="lQojN_XJNmVnjLz6gcaS-51">
          <mxGeometry width="40" height="30" as="geometry">
            <mxRectangle width="40" height="30" as="alternateBounds" />
          </mxGeometry>
        </mxCell>
        <mxCell id="lQojN_XJNmVnjLz6gcaS-53" value="first_name" style="shape=partialRectangle;connectable=0;fillColor=none;top=0;left=0;bottom=0;right=0;align=left;spacingLeft=6;overflow=hidden;whiteSpace=wrap;html=1;sketch=1;curveFitting=1;jiggle=2;strokeColor=#d6b656;fontFamily=Comic Sans MS;fontSize=15;" vertex="1" parent="lQojN_XJNmVnjLz6gcaS-51">
          <mxGeometry x="40" width="160" height="30" as="geometry">
            <mxRectangle width="160" height="30" as="alternateBounds" />
          </mxGeometry>
        </mxCell>
        <mxCell id="lQojN_XJNmVnjLz6gcaS-54" style="shape=tableRow;horizontal=0;startSize=0;swimlaneHead=0;swimlaneBody=0;fillColor=none;collapsible=0;dropTarget=0;points=[[0,0.5],[1,0.5]];portConstraint=eastwest;top=0;left=0;right=0;bottom=0;sketch=1;curveFitting=1;jiggle=2;strokeColor=#d6b656;fontFamily=Comic Sans MS;fontSize=15;" vertex="1" parent="lQojN_XJNmVnjLz6gcaS-41">
          <mxGeometry y="150" width="200" height="30" as="geometry" />
        </mxCell>
        <mxCell id="lQojN_XJNmVnjLz6gcaS-55" style="shape=partialRectangle;connectable=0;fillColor=none;top=0;left=0;bottom=0;right=0;editable=1;overflow=hidden;whiteSpace=wrap;html=1;sketch=1;curveFitting=1;jiggle=2;strokeColor=#d6b656;fontFamily=Comic Sans MS;fontSize=15;" vertex="1" parent="lQojN_XJNmVnjLz6gcaS-54">
          <mxGeometry width="40" height="30" as="geometry">
            <mxRectangle width="40" height="30" as="alternateBounds" />
          </mxGeometry>
        </mxCell>
        <mxCell id="lQojN_XJNmVnjLz6gcaS-56" value="last_name" style="shape=partialRectangle;connectable=0;fillColor=none;top=0;left=0;bottom=0;right=0;align=left;spacingLeft=6;overflow=hidden;whiteSpace=wrap;html=1;sketch=1;curveFitting=1;jiggle=2;strokeColor=#d6b656;fontFamily=Comic Sans MS;fontSize=15;" vertex="1" parent="lQojN_XJNmVnjLz6gcaS-54">
          <mxGeometry x="40" width="160" height="30" as="geometry">
            <mxRectangle width="160" height="30" as="alternateBounds" />
          </mxGeometry>
        </mxCell>
        <mxCell id="lQojN_XJNmVnjLz6gcaS-57" style="shape=tableRow;horizontal=0;startSize=0;swimlaneHead=0;swimlaneBody=0;fillColor=none;collapsible=0;dropTarget=0;points=[[0,0.5],[1,0.5]];portConstraint=eastwest;top=0;left=0;right=0;bottom=0;sketch=1;curveFitting=1;jiggle=2;strokeColor=#d6b656;fontFamily=Comic Sans MS;fontSize=15;" vertex="1" parent="lQojN_XJNmVnjLz6gcaS-41">
          <mxGeometry y="180" width="200" height="30" as="geometry" />
        </mxCell>
        <mxCell id="lQojN_XJNmVnjLz6gcaS-58" style="shape=partialRectangle;connectable=0;fillColor=none;top=0;left=0;bottom=0;right=0;editable=1;overflow=hidden;whiteSpace=wrap;html=1;sketch=1;curveFitting=1;jiggle=2;strokeColor=#d6b656;fontFamily=Comic Sans MS;fontSize=15;" vertex="1" parent="lQojN_XJNmVnjLz6gcaS-57">
          <mxGeometry width="40" height="30" as="geometry">
            <mxRectangle width="40" height="30" as="alternateBounds" />
          </mxGeometry>
        </mxCell>
        <mxCell id="lQojN_XJNmVnjLz6gcaS-59" value="country" style="shape=partialRectangle;connectable=0;fillColor=none;top=0;left=0;bottom=0;right=0;align=left;spacingLeft=6;overflow=hidden;whiteSpace=wrap;html=1;sketch=1;curveFitting=1;jiggle=2;strokeColor=#d6b656;fontFamily=Comic Sans MS;fontSize=15;" vertex="1" parent="lQojN_XJNmVnjLz6gcaS-57">
          <mxGeometry x="40" width="160" height="30" as="geometry">
            <mxRectangle width="160" height="30" as="alternateBounds" />
          </mxGeometry>
        </mxCell>
        <mxCell id="lQojN_XJNmVnjLz6gcaS-60" style="shape=tableRow;horizontal=0;startSize=0;swimlaneHead=0;swimlaneBody=0;fillColor=none;collapsible=0;dropTarget=0;points=[[0,0.5],[1,0.5]];portConstraint=eastwest;top=0;left=0;right=0;bottom=0;sketch=1;curveFitting=1;jiggle=2;strokeColor=#d6b656;fontFamily=Comic Sans MS;fontSize=15;" vertex="1" parent="lQojN_XJNmVnjLz6gcaS-41">
          <mxGeometry y="210" width="200" height="30" as="geometry" />
        </mxCell>
        <mxCell id="lQojN_XJNmVnjLz6gcaS-61" style="shape=partialRectangle;connectable=0;fillColor=none;top=0;left=0;bottom=0;right=0;editable=1;overflow=hidden;whiteSpace=wrap;html=1;sketch=1;curveFitting=1;jiggle=2;strokeColor=#d6b656;fontFamily=Comic Sans MS;fontSize=15;" vertex="1" parent="lQojN_XJNmVnjLz6gcaS-60">
          <mxGeometry width="40" height="30" as="geometry">
            <mxRectangle width="40" height="30" as="alternateBounds" />
          </mxGeometry>
        </mxCell>
        <mxCell id="lQojN_XJNmVnjLz6gcaS-62" value="marital_status" style="shape=partialRectangle;connectable=0;fillColor=none;top=0;left=0;bottom=0;right=0;align=left;spacingLeft=6;overflow=hidden;whiteSpace=wrap;html=1;sketch=1;curveFitting=1;jiggle=2;strokeColor=#d6b656;fontFamily=Comic Sans MS;fontSize=15;" vertex="1" parent="lQojN_XJNmVnjLz6gcaS-60">
          <mxGeometry x="40" width="160" height="30" as="geometry">
            <mxRectangle width="160" height="30" as="alternateBounds" />
          </mxGeometry>
        </mxCell>
        <mxCell id="lQojN_XJNmVnjLz6gcaS-63" style="shape=tableRow;horizontal=0;startSize=0;swimlaneHead=0;swimlaneBody=0;fillColor=none;collapsible=0;dropTarget=0;points=[[0,0.5],[1,0.5]];portConstraint=eastwest;top=0;left=0;right=0;bottom=0;sketch=1;curveFitting=1;jiggle=2;strokeColor=#d6b656;fontFamily=Comic Sans MS;fontSize=15;" vertex="1" parent="lQojN_XJNmVnjLz6gcaS-41">
          <mxGeometry y="240" width="200" height="30" as="geometry" />
        </mxCell>
        <mxCell id="lQojN_XJNmVnjLz6gcaS-64" style="shape=partialRectangle;connectable=0;fillColor=none;top=0;left=0;bottom=0;right=0;editable=1;overflow=hidden;whiteSpace=wrap;html=1;sketch=1;curveFitting=1;jiggle=2;strokeColor=#d6b656;fontFamily=Comic Sans MS;fontSize=15;" vertex="1" parent="lQojN_XJNmVnjLz6gcaS-63">
          <mxGeometry width="40" height="30" as="geometry">
            <mxRectangle width="40" height="30" as="alternateBounds" />
          </mxGeometry>
        </mxCell>
        <mxCell id="lQojN_XJNmVnjLz6gcaS-65" value="gender" style="shape=partialRectangle;connectable=0;fillColor=none;top=0;left=0;bottom=0;right=0;align=left;spacingLeft=6;overflow=hidden;whiteSpace=wrap;html=1;sketch=1;curveFitting=1;jiggle=2;strokeColor=#d6b656;fontFamily=Comic Sans MS;fontSize=15;" vertex="1" parent="lQojN_XJNmVnjLz6gcaS-63">
          <mxGeometry x="40" width="160" height="30" as="geometry">
            <mxRectangle width="160" height="30" as="alternateBounds" />
          </mxGeometry>
        </mxCell>
        <mxCell id="lQojN_XJNmVnjLz6gcaS-66" style="shape=tableRow;horizontal=0;startSize=0;swimlaneHead=0;swimlaneBody=0;fillColor=none;collapsible=0;dropTarget=0;points=[[0,0.5],[1,0.5]];portConstraint=eastwest;top=0;left=0;right=0;bottom=0;sketch=1;curveFitting=1;jiggle=2;strokeColor=#d6b656;fontFamily=Comic Sans MS;fontSize=15;" vertex="1" parent="lQojN_XJNmVnjLz6gcaS-41">
          <mxGeometry y="270" width="200" height="30" as="geometry" />
        </mxCell>
        <mxCell id="lQojN_XJNmVnjLz6gcaS-67" style="shape=partialRectangle;connectable=0;fillColor=none;top=0;left=0;bottom=0;right=0;editable=1;overflow=hidden;whiteSpace=wrap;html=1;sketch=1;curveFitting=1;jiggle=2;strokeColor=#d6b656;fontFamily=Comic Sans MS;fontSize=15;" vertex="1" parent="lQojN_XJNmVnjLz6gcaS-66">
          <mxGeometry width="40" height="30" as="geometry">
            <mxRectangle width="40" height="30" as="alternateBounds" />
          </mxGeometry>
        </mxCell>
        <mxCell id="lQojN_XJNmVnjLz6gcaS-68" value="birthdate" style="shape=partialRectangle;connectable=0;fillColor=none;top=0;left=0;bottom=0;right=0;align=left;spacingLeft=6;overflow=hidden;whiteSpace=wrap;html=1;sketch=1;curveFitting=1;jiggle=2;strokeColor=#d6b656;fontFamily=Comic Sans MS;fontSize=15;" vertex="1" parent="lQojN_XJNmVnjLz6gcaS-66">
          <mxGeometry x="40" width="160" height="30" as="geometry">
            <mxRectangle width="160" height="30" as="alternateBounds" />
          </mxGeometry>
        </mxCell>
        <mxCell id="lQojN_XJNmVnjLz6gcaS-69" style="shape=tableRow;horizontal=0;startSize=0;swimlaneHead=0;swimlaneBody=0;fillColor=none;collapsible=0;dropTarget=0;points=[[0,0.5],[1,0.5]];portConstraint=eastwest;top=0;left=0;right=0;bottom=0;sketch=1;curveFitting=1;jiggle=2;strokeColor=#d6b656;fontFamily=Comic Sans MS;fontSize=15;" vertex="1" parent="lQojN_XJNmVnjLz6gcaS-41">
          <mxGeometry y="300" width="200" height="30" as="geometry" />
        </mxCell>
        <mxCell id="lQojN_XJNmVnjLz6gcaS-70" style="shape=partialRectangle;connectable=0;fillColor=none;top=0;left=0;bottom=0;right=0;editable=1;overflow=hidden;whiteSpace=wrap;html=1;sketch=1;curveFitting=1;jiggle=2;strokeColor=#d6b656;fontFamily=Comic Sans MS;fontSize=15;" vertex="1" parent="lQojN_XJNmVnjLz6gcaS-69">
          <mxGeometry width="40" height="30" as="geometry">
            <mxRectangle width="40" height="30" as="alternateBounds" />
          </mxGeometry>
        </mxCell>
        <mxCell id="lQojN_XJNmVnjLz6gcaS-71" value="country" style="shape=partialRectangle;connectable=0;fillColor=none;top=0;left=0;bottom=0;right=0;align=left;spacingLeft=6;overflow=hidden;whiteSpace=wrap;html=1;sketch=1;curveFitting=1;jiggle=2;strokeColor=#d6b656;fontFamily=Comic Sans MS;fontSize=15;" vertex="1" parent="lQojN_XJNmVnjLz6gcaS-69">
          <mxGeometry x="40" width="160" height="30" as="geometry">
            <mxRectangle width="160" height="30" as="alternateBounds" />
          </mxGeometry>
        </mxCell>
        <mxCell id="lQojN_XJNmVnjLz6gcaS-117" value="gold.fact_sales" style="shape=table;startSize=30;container=1;collapsible=0;childLayout=tableLayout;fixedRows=1;rowLines=0;fontStyle=0;strokeColor=#6c8ebf;fontSize=15;fillColor=#dae8fc;sketch=1;curveFitting=1;jiggle=2;rounded=1;swimlaneLine=1;fontFamily=Comic Sans MS;shadow=1;" vertex="1" parent="1">
          <mxGeometry x="360" y="320" width="200" height="290" as="geometry" />
        </mxCell>
        <mxCell id="lQojN_XJNmVnjLz6gcaS-118" value="" style="shape=tableRow;horizontal=0;startSize=0;swimlaneHead=0;swimlaneBody=0;top=0;left=0;bottom=0;right=0;collapsible=0;dropTarget=0;fillColor=none;points=[[0,0.5],[1,0.5]];portConstraint=eastwest;strokeColor=inherit;fontSize=15;fontFamily=Comic Sans MS;" vertex="1" parent="lQojN_XJNmVnjLz6gcaS-117">
          <mxGeometry y="30" width="200" height="30" as="geometry" />
        </mxCell>
        <mxCell id="lQojN_XJNmVnjLz6gcaS-119" value="" style="shape=partialRectangle;html=1;whiteSpace=wrap;connectable=0;fillColor=none;top=0;left=0;bottom=0;right=0;overflow=hidden;pointerEvents=1;strokeColor=inherit;fontSize=15;fontFamily=Comic Sans MS;" vertex="1" parent="lQojN_XJNmVnjLz6gcaS-118">
          <mxGeometry width="50" height="30" as="geometry">
            <mxRectangle width="50" height="30" as="alternateBounds" />
          </mxGeometry>
        </mxCell>
        <mxCell id="lQojN_XJNmVnjLz6gcaS-120" value="&lt;span&gt;order_number&lt;/span&gt;" style="shape=partialRectangle;html=1;whiteSpace=wrap;connectable=0;fillColor=none;top=0;left=0;bottom=0;right=0;align=left;spacingLeft=6;overflow=hidden;strokeColor=inherit;fontSize=15;fontFamily=Comic Sans MS;" vertex="1" parent="lQojN_XJNmVnjLz6gcaS-118">
          <mxGeometry x="50" width="150" height="30" as="geometry">
            <mxRectangle width="150" height="30" as="alternateBounds" />
          </mxGeometry>
        </mxCell>
        <mxCell id="lQojN_XJNmVnjLz6gcaS-121" value="" style="shape=tableRow;horizontal=0;startSize=0;swimlaneHead=0;swimlaneBody=0;top=0;left=0;bottom=0;right=0;collapsible=0;dropTarget=0;fillColor=none;points=[[0,0.5],[1,0.5]];portConstraint=eastwest;strokeColor=inherit;fontSize=15;fontFamily=Comic Sans MS;" vertex="1" parent="lQojN_XJNmVnjLz6gcaS-117">
          <mxGeometry y="60" width="200" height="30" as="geometry" />
        </mxCell>
        <mxCell id="lQojN_XJNmVnjLz6gcaS-122" value="FK1" style="shape=partialRectangle;html=1;whiteSpace=wrap;connectable=0;fillColor=none;top=0;left=0;bottom=0;right=0;overflow=hidden;strokeColor=inherit;fontSize=15;fontFamily=Comic Sans MS;" vertex="1" parent="lQojN_XJNmVnjLz6gcaS-121">
          <mxGeometry width="50" height="30" as="geometry">
            <mxRectangle width="50" height="30" as="alternateBounds" />
          </mxGeometry>
        </mxCell>
        <mxCell id="lQojN_XJNmVnjLz6gcaS-123" value="&lt;span&gt;product_key&lt;/span&gt;" style="shape=partialRectangle;html=1;whiteSpace=wrap;connectable=0;fillColor=none;top=0;left=0;bottom=0;right=0;align=left;spacingLeft=6;overflow=hidden;strokeColor=inherit;fontSize=15;fontFamily=Comic Sans MS;" vertex="1" parent="lQojN_XJNmVnjLz6gcaS-121">
          <mxGeometry x="50" width="150" height="30" as="geometry">
            <mxRectangle width="150" height="30" as="alternateBounds" />
          </mxGeometry>
        </mxCell>
        <mxCell id="lQojN_XJNmVnjLz6gcaS-124" value="" style="shape=tableRow;horizontal=0;startSize=0;swimlaneHead=0;swimlaneBody=0;top=0;left=0;bottom=0;right=0;collapsible=0;dropTarget=0;fillColor=none;points=[[0,0.5],[1,0.5]];portConstraint=eastwest;strokeColor=inherit;fontSize=15;fontFamily=Comic Sans MS;" vertex="1" parent="lQojN_XJNmVnjLz6gcaS-117">
          <mxGeometry y="90" width="200" height="30" as="geometry" />
        </mxCell>
        <mxCell id="lQojN_XJNmVnjLz6gcaS-125" value="FK2" style="shape=partialRectangle;html=1;whiteSpace=wrap;connectable=0;fillColor=none;top=0;left=0;bottom=0;right=0;overflow=hidden;strokeColor=inherit;fontSize=15;fontFamily=Comic Sans MS;" vertex="1" parent="lQojN_XJNmVnjLz6gcaS-124">
          <mxGeometry width="50" height="30" as="geometry">
            <mxRectangle width="50" height="30" as="alternateBounds" />
          </mxGeometry>
        </mxCell>
        <mxCell id="lQojN_XJNmVnjLz6gcaS-126" value="&lt;span&gt;customer_key&lt;/span&gt;" style="shape=partialRectangle;html=1;whiteSpace=wrap;connectable=0;fillColor=none;top=0;left=0;bottom=0;right=0;align=left;spacingLeft=6;overflow=hidden;strokeColor=inherit;fontSize=15;fontFamily=Comic Sans MS;" vertex="1" parent="lQojN_XJNmVnjLz6gcaS-124">
          <mxGeometry x="50" width="150" height="30" as="geometry">
            <mxRectangle width="150" height="30" as="alternateBounds" />
          </mxGeometry>
        </mxCell>
        <mxCell id="lQojN_XJNmVnjLz6gcaS-133" style="shape=tableRow;horizontal=0;startSize=0;swimlaneHead=0;swimlaneBody=0;top=0;left=0;bottom=0;right=0;collapsible=0;dropTarget=0;fillColor=none;points=[[0,0.5],[1,0.5]];portConstraint=eastwest;strokeColor=inherit;fontSize=15;fontFamily=Comic Sans MS;" vertex="1" parent="lQojN_XJNmVnjLz6gcaS-117">
          <mxGeometry y="120" width="200" height="30" as="geometry" />
        </mxCell>
        <mxCell id="lQojN_XJNmVnjLz6gcaS-134" style="shape=partialRectangle;html=1;whiteSpace=wrap;connectable=0;fillColor=none;top=0;left=0;bottom=0;right=0;overflow=hidden;strokeColor=inherit;fontSize=15;fontFamily=Comic Sans MS;" vertex="1" parent="lQojN_XJNmVnjLz6gcaS-133">
          <mxGeometry width="50" height="30" as="geometry">
            <mxRectangle width="50" height="30" as="alternateBounds" />
          </mxGeometry>
        </mxCell>
        <mxCell id="lQojN_XJNmVnjLz6gcaS-135" value="&lt;span&gt;order_date&lt;/span&gt;" style="shape=partialRectangle;html=1;whiteSpace=wrap;connectable=0;fillColor=none;top=0;left=0;bottom=0;right=0;align=left;spacingLeft=6;overflow=hidden;strokeColor=inherit;fontSize=15;fontFamily=Comic Sans MS;" vertex="1" parent="lQojN_XJNmVnjLz6gcaS-133">
          <mxGeometry x="50" width="150" height="30" as="geometry">
            <mxRectangle width="150" height="30" as="alternateBounds" />
          </mxGeometry>
        </mxCell>
        <mxCell id="lQojN_XJNmVnjLz6gcaS-130" style="shape=tableRow;horizontal=0;startSize=0;swimlaneHead=0;swimlaneBody=0;top=0;left=0;bottom=0;right=0;collapsible=0;dropTarget=0;fillColor=none;points=[[0,0.5],[1,0.5]];portConstraint=eastwest;strokeColor=inherit;fontSize=15;fontFamily=Comic Sans MS;" vertex="1" parent="lQojN_XJNmVnjLz6gcaS-117">
          <mxGeometry y="150" width="200" height="30" as="geometry" />
        </mxCell>
        <mxCell id="lQojN_XJNmVnjLz6gcaS-131" style="shape=partialRectangle;html=1;whiteSpace=wrap;connectable=0;fillColor=none;top=0;left=0;bottom=0;right=0;overflow=hidden;strokeColor=inherit;fontSize=15;fontFamily=Comic Sans MS;" vertex="1" parent="lQojN_XJNmVnjLz6gcaS-130">
          <mxGeometry width="50" height="30" as="geometry">
            <mxRectangle width="50" height="30" as="alternateBounds" />
          </mxGeometry>
        </mxCell>
        <mxCell id="lQojN_XJNmVnjLz6gcaS-132" value="&lt;span&gt;shipping_date&lt;/span&gt;" style="shape=partialRectangle;html=1;whiteSpace=wrap;connectable=0;fillColor=none;top=0;left=0;bottom=0;right=0;align=left;spacingLeft=6;overflow=hidden;strokeColor=inherit;fontSize=15;fontFamily=Comic Sans MS;" vertex="1" parent="lQojN_XJNmVnjLz6gcaS-130">
          <mxGeometry x="50" width="150" height="30" as="geometry">
            <mxRectangle width="150" height="30" as="alternateBounds" />
          </mxGeometry>
        </mxCell>
        <mxCell id="lQojN_XJNmVnjLz6gcaS-127" style="shape=tableRow;horizontal=0;startSize=0;swimlaneHead=0;swimlaneBody=0;top=0;left=0;bottom=0;right=0;collapsible=0;dropTarget=0;fillColor=none;points=[[0,0.5],[1,0.5]];portConstraint=eastwest;strokeColor=inherit;fontSize=15;fontFamily=Comic Sans MS;" vertex="1" parent="lQojN_XJNmVnjLz6gcaS-117">
          <mxGeometry y="180" width="200" height="30" as="geometry" />
        </mxCell>
        <mxCell id="lQojN_XJNmVnjLz6gcaS-128" style="shape=partialRectangle;html=1;whiteSpace=wrap;connectable=0;fillColor=none;top=0;left=0;bottom=0;right=0;overflow=hidden;strokeColor=inherit;fontSize=15;fontFamily=Comic Sans MS;" vertex="1" parent="lQojN_XJNmVnjLz6gcaS-127">
          <mxGeometry width="50" height="30" as="geometry">
            <mxRectangle width="50" height="30" as="alternateBounds" />
          </mxGeometry>
        </mxCell>
        <mxCell id="lQojN_XJNmVnjLz6gcaS-129" value="&lt;span&gt;due_date&lt;/span&gt;" style="shape=partialRectangle;html=1;whiteSpace=wrap;connectable=0;fillColor=none;top=0;left=0;bottom=0;right=0;align=left;spacingLeft=6;overflow=hidden;strokeColor=inherit;fontSize=15;fontFamily=Comic Sans MS;" vertex="1" parent="lQojN_XJNmVnjLz6gcaS-127">
          <mxGeometry x="50" width="150" height="30" as="geometry">
            <mxRectangle width="150" height="30" as="alternateBounds" />
          </mxGeometry>
        </mxCell>
        <mxCell id="lQojN_XJNmVnjLz6gcaS-136" style="shape=tableRow;horizontal=0;startSize=0;swimlaneHead=0;swimlaneBody=0;top=0;left=0;bottom=0;right=0;collapsible=0;dropTarget=0;fillColor=none;points=[[0,0.5],[1,0.5]];portConstraint=eastwest;strokeColor=inherit;fontSize=15;fontFamily=Comic Sans MS;" vertex="1" parent="lQojN_XJNmVnjLz6gcaS-117">
          <mxGeometry y="210" width="200" height="20" as="geometry" />
        </mxCell>
        <mxCell id="lQojN_XJNmVnjLz6gcaS-137" style="shape=partialRectangle;html=1;whiteSpace=wrap;connectable=0;fillColor=none;top=0;left=0;bottom=0;right=0;overflow=hidden;strokeColor=inherit;fontSize=15;fontFamily=Comic Sans MS;" vertex="1" parent="lQojN_XJNmVnjLz6gcaS-136">
          <mxGeometry width="50" height="20" as="geometry">
            <mxRectangle width="50" height="20" as="alternateBounds" />
          </mxGeometry>
        </mxCell>
        <mxCell id="lQojN_XJNmVnjLz6gcaS-138" value="&lt;span&gt;sales_amount&lt;/span&gt;" style="shape=partialRectangle;html=1;whiteSpace=wrap;connectable=0;fillColor=none;top=0;left=0;bottom=0;right=0;align=left;spacingLeft=6;overflow=hidden;strokeColor=inherit;fontSize=15;fontFamily=Comic Sans MS;" vertex="1" parent="lQojN_XJNmVnjLz6gcaS-136">
          <mxGeometry x="50" width="150" height="20" as="geometry">
            <mxRectangle width="150" height="20" as="alternateBounds" />
          </mxGeometry>
        </mxCell>
        <mxCell id="lQojN_XJNmVnjLz6gcaS-139" style="shape=tableRow;horizontal=0;startSize=0;swimlaneHead=0;swimlaneBody=0;top=0;left=0;bottom=0;right=0;collapsible=0;dropTarget=0;fillColor=none;points=[[0,0.5],[1,0.5]];portConstraint=eastwest;strokeColor=inherit;fontSize=15;fontFamily=Comic Sans MS;" vertex="1" parent="lQojN_XJNmVnjLz6gcaS-117">
          <mxGeometry y="230" width="200" height="30" as="geometry" />
        </mxCell>
        <mxCell id="lQojN_XJNmVnjLz6gcaS-140" style="shape=partialRectangle;html=1;whiteSpace=wrap;connectable=0;fillColor=none;top=0;left=0;bottom=0;right=0;overflow=hidden;strokeColor=inherit;fontSize=15;fontFamily=Comic Sans MS;" vertex="1" parent="lQojN_XJNmVnjLz6gcaS-139">
          <mxGeometry width="50" height="30" as="geometry">
            <mxRectangle width="50" height="30" as="alternateBounds" />
          </mxGeometry>
        </mxCell>
        <mxCell id="lQojN_XJNmVnjLz6gcaS-141" value="&lt;span&gt;quantity&lt;/span&gt;" style="shape=partialRectangle;html=1;whiteSpace=wrap;connectable=0;fillColor=none;top=0;left=0;bottom=0;right=0;align=left;spacingLeft=6;overflow=hidden;strokeColor=inherit;fontSize=15;fontFamily=Comic Sans MS;" vertex="1" parent="lQojN_XJNmVnjLz6gcaS-139">
          <mxGeometry x="50" width="150" height="30" as="geometry">
            <mxRectangle width="150" height="30" as="alternateBounds" />
          </mxGeometry>
        </mxCell>
        <mxCell id="lQojN_XJNmVnjLz6gcaS-142" style="shape=tableRow;horizontal=0;startSize=0;swimlaneHead=0;swimlaneBody=0;top=0;left=0;bottom=0;right=0;collapsible=0;dropTarget=0;fillColor=none;points=[[0,0.5],[1,0.5]];portConstraint=eastwest;strokeColor=inherit;fontSize=15;fontFamily=Comic Sans MS;" vertex="1" parent="lQojN_XJNmVnjLz6gcaS-117">
          <mxGeometry y="260" width="200" height="30" as="geometry" />
        </mxCell>
        <mxCell id="lQojN_XJNmVnjLz6gcaS-143" style="shape=partialRectangle;html=1;whiteSpace=wrap;connectable=0;fillColor=none;top=0;left=0;bottom=0;right=0;overflow=hidden;strokeColor=inherit;fontSize=15;fontFamily=Comic Sans MS;" vertex="1" parent="lQojN_XJNmVnjLz6gcaS-142">
          <mxGeometry width="50" height="30" as="geometry">
            <mxRectangle width="50" height="30" as="alternateBounds" />
          </mxGeometry>
        </mxCell>
        <mxCell id="lQojN_XJNmVnjLz6gcaS-144" value="&lt;span&gt;price&lt;/span&gt;" style="shape=partialRectangle;html=1;whiteSpace=wrap;connectable=0;fillColor=none;top=0;left=0;bottom=0;right=0;align=left;spacingLeft=6;overflow=hidden;strokeColor=inherit;fontSize=15;fontFamily=Comic Sans MS;shadow=0;" vertex="1" parent="lQojN_XJNmVnjLz6gcaS-142">
          <mxGeometry x="50" width="150" height="30" as="geometry">
            <mxRectangle width="150" height="30" as="alternateBounds" />
          </mxGeometry>
        </mxCell>
        <mxCell id="lQojN_XJNmVnjLz6gcaS-145" value="&lt;span style=&quot;font-weight: 400; text-wrap-mode: wrap;&quot;&gt;gold.dim_products&lt;/span&gt;" style="shape=table;startSize=30;container=1;collapsible=1;childLayout=tableLayout;fixedRows=1;rowLines=0;fontStyle=1;align=center;resizeLast=1;html=1;sketch=1;curveFitting=1;jiggle=2;fillColor=#fff2cc;strokeColor=#d6b656;rounded=1;fontFamily=Comic Sans MS;fontSize=15;shadow=1;" vertex="1" parent="1">
          <mxGeometry x="680" y="320" width="200" height="330" as="geometry" />
        </mxCell>
        <mxCell id="lQojN_XJNmVnjLz6gcaS-146" value="" style="shape=tableRow;horizontal=0;startSize=0;swimlaneHead=0;swimlaneBody=0;fillColor=none;collapsible=0;dropTarget=0;points=[[0,0.5],[1,0.5]];portConstraint=eastwest;top=0;left=0;right=0;bottom=1;sketch=1;curveFitting=1;jiggle=2;strokeColor=#d6b656;fontFamily=Comic Sans MS;fontSize=15;" vertex="1" parent="lQojN_XJNmVnjLz6gcaS-145">
          <mxGeometry y="30" width="200" height="30" as="geometry" />
        </mxCell>
        <mxCell id="lQojN_XJNmVnjLz6gcaS-147" value="PK" style="shape=partialRectangle;connectable=0;fillColor=none;top=0;left=0;bottom=0;right=0;fontStyle=1;overflow=hidden;whiteSpace=wrap;html=1;sketch=1;curveFitting=1;jiggle=2;strokeColor=#d6b656;fontFamily=Comic Sans MS;fontSize=15;" vertex="1" parent="lQojN_XJNmVnjLz6gcaS-146">
          <mxGeometry width="40" height="30" as="geometry">
            <mxRectangle width="40" height="30" as="alternateBounds" />
          </mxGeometry>
        </mxCell>
        <mxCell id="lQojN_XJNmVnjLz6gcaS-148" value="&lt;span style=&quot;font-weight: 400;&quot;&gt;product_key&lt;/span&gt;" style="shape=partialRectangle;connectable=0;fillColor=none;top=0;left=0;bottom=0;right=0;align=left;spacingLeft=6;fontStyle=5;overflow=hidden;whiteSpace=wrap;html=1;sketch=1;curveFitting=1;jiggle=2;strokeColor=#d6b656;fontFamily=Comic Sans MS;fontSize=15;" vertex="1" parent="lQojN_XJNmVnjLz6gcaS-146">
          <mxGeometry x="40" width="160" height="30" as="geometry">
            <mxRectangle width="160" height="30" as="alternateBounds" />
          </mxGeometry>
        </mxCell>
        <mxCell id="lQojN_XJNmVnjLz6gcaS-149" value="" style="shape=tableRow;horizontal=0;startSize=0;swimlaneHead=0;swimlaneBody=0;fillColor=none;collapsible=0;dropTarget=0;points=[[0,0.5],[1,0.5]];portConstraint=eastwest;top=0;left=0;right=0;bottom=0;sketch=1;curveFitting=1;jiggle=2;strokeColor=#d6b656;fontFamily=Comic Sans MS;fontSize=15;" vertex="1" parent="lQojN_XJNmVnjLz6gcaS-145">
          <mxGeometry y="60" width="200" height="30" as="geometry" />
        </mxCell>
        <mxCell id="lQojN_XJNmVnjLz6gcaS-150" value="" style="shape=partialRectangle;connectable=0;fillColor=none;top=0;left=0;bottom=0;right=0;editable=1;overflow=hidden;whiteSpace=wrap;html=1;sketch=1;curveFitting=1;jiggle=2;strokeColor=#d6b656;fontFamily=Comic Sans MS;fontSize=15;" vertex="1" parent="lQojN_XJNmVnjLz6gcaS-149">
          <mxGeometry width="40" height="30" as="geometry">
            <mxRectangle width="40" height="30" as="alternateBounds" />
          </mxGeometry>
        </mxCell>
        <mxCell id="lQojN_XJNmVnjLz6gcaS-151" value="product_id" style="shape=partialRectangle;connectable=0;fillColor=none;top=0;left=0;bottom=0;right=0;align=left;spacingLeft=6;overflow=hidden;whiteSpace=wrap;html=1;sketch=1;curveFitting=1;jiggle=2;strokeColor=#d6b656;fontFamily=Comic Sans MS;fontSize=15;" vertex="1" parent="lQojN_XJNmVnjLz6gcaS-149">
          <mxGeometry x="40" width="160" height="30" as="geometry">
            <mxRectangle width="160" height="30" as="alternateBounds" />
          </mxGeometry>
        </mxCell>
        <mxCell id="lQojN_XJNmVnjLz6gcaS-152" value="" style="shape=tableRow;horizontal=0;startSize=0;swimlaneHead=0;swimlaneBody=0;fillColor=none;collapsible=0;dropTarget=0;points=[[0,0.5],[1,0.5]];portConstraint=eastwest;top=0;left=0;right=0;bottom=0;sketch=1;curveFitting=1;jiggle=2;strokeColor=#d6b656;fontFamily=Comic Sans MS;fontSize=15;" vertex="1" parent="lQojN_XJNmVnjLz6gcaS-145">
          <mxGeometry y="90" width="200" height="30" as="geometry" />
        </mxCell>
        <mxCell id="lQojN_XJNmVnjLz6gcaS-153" value="" style="shape=partialRectangle;connectable=0;fillColor=none;top=0;left=0;bottom=0;right=0;editable=1;overflow=hidden;whiteSpace=wrap;html=1;sketch=1;curveFitting=1;jiggle=2;strokeColor=#d6b656;fontFamily=Comic Sans MS;fontSize=15;" vertex="1" parent="lQojN_XJNmVnjLz6gcaS-152">
          <mxGeometry width="40" height="30" as="geometry">
            <mxRectangle width="40" height="30" as="alternateBounds" />
          </mxGeometry>
        </mxCell>
        <mxCell id="lQojN_XJNmVnjLz6gcaS-154" value="product_number" style="shape=partialRectangle;connectable=0;fillColor=none;top=0;left=0;bottom=0;right=0;align=left;spacingLeft=6;overflow=hidden;whiteSpace=wrap;html=1;sketch=1;curveFitting=1;jiggle=2;strokeColor=#d6b656;fontFamily=Comic Sans MS;fontSize=15;" vertex="1" parent="lQojN_XJNmVnjLz6gcaS-152">
          <mxGeometry x="40" width="160" height="30" as="geometry">
            <mxRectangle width="160" height="30" as="alternateBounds" />
          </mxGeometry>
        </mxCell>
        <mxCell id="lQojN_XJNmVnjLz6gcaS-155" value="" style="shape=tableRow;horizontal=0;startSize=0;swimlaneHead=0;swimlaneBody=0;fillColor=none;collapsible=0;dropTarget=0;points=[[0,0.5],[1,0.5]];portConstraint=eastwest;top=0;left=0;right=0;bottom=0;sketch=1;curveFitting=1;jiggle=2;strokeColor=#d6b656;fontFamily=Comic Sans MS;fontSize=15;" vertex="1" parent="lQojN_XJNmVnjLz6gcaS-145">
          <mxGeometry y="120" width="200" height="30" as="geometry" />
        </mxCell>
        <mxCell id="lQojN_XJNmVnjLz6gcaS-156" value="" style="shape=partialRectangle;connectable=0;fillColor=none;top=0;left=0;bottom=0;right=0;editable=1;overflow=hidden;whiteSpace=wrap;html=1;sketch=1;curveFitting=1;jiggle=2;strokeColor=#d6b656;fontFamily=Comic Sans MS;fontSize=15;" vertex="1" parent="lQojN_XJNmVnjLz6gcaS-155">
          <mxGeometry width="40" height="30" as="geometry">
            <mxRectangle width="40" height="30" as="alternateBounds" />
          </mxGeometry>
        </mxCell>
        <mxCell id="lQojN_XJNmVnjLz6gcaS-157" value="product_name" style="shape=partialRectangle;connectable=0;fillColor=none;top=0;left=0;bottom=0;right=0;align=left;spacingLeft=6;overflow=hidden;whiteSpace=wrap;html=1;sketch=1;curveFitting=1;jiggle=2;strokeColor=#d6b656;fontFamily=Comic Sans MS;fontSize=15;" vertex="1" parent="lQojN_XJNmVnjLz6gcaS-155">
          <mxGeometry x="40" width="160" height="30" as="geometry">
            <mxRectangle width="160" height="30" as="alternateBounds" />
          </mxGeometry>
        </mxCell>
        <mxCell id="lQojN_XJNmVnjLz6gcaS-158" style="shape=tableRow;horizontal=0;startSize=0;swimlaneHead=0;swimlaneBody=0;fillColor=none;collapsible=0;dropTarget=0;points=[[0,0.5],[1,0.5]];portConstraint=eastwest;top=0;left=0;right=0;bottom=0;sketch=1;curveFitting=1;jiggle=2;strokeColor=#d6b656;fontFamily=Comic Sans MS;fontSize=15;" vertex="1" parent="lQojN_XJNmVnjLz6gcaS-145">
          <mxGeometry y="150" width="200" height="30" as="geometry" />
        </mxCell>
        <mxCell id="lQojN_XJNmVnjLz6gcaS-159" style="shape=partialRectangle;connectable=0;fillColor=none;top=0;left=0;bottom=0;right=0;editable=1;overflow=hidden;whiteSpace=wrap;html=1;sketch=1;curveFitting=1;jiggle=2;strokeColor=#d6b656;fontFamily=Comic Sans MS;fontSize=15;" vertex="1" parent="lQojN_XJNmVnjLz6gcaS-158">
          <mxGeometry width="40" height="30" as="geometry">
            <mxRectangle width="40" height="30" as="alternateBounds" />
          </mxGeometry>
        </mxCell>
        <mxCell id="lQojN_XJNmVnjLz6gcaS-160" value="category_id" style="shape=partialRectangle;connectable=0;fillColor=none;top=0;left=0;bottom=0;right=0;align=left;spacingLeft=6;overflow=hidden;whiteSpace=wrap;html=1;sketch=1;curveFitting=1;jiggle=2;strokeColor=#d6b656;fontFamily=Comic Sans MS;fontSize=15;" vertex="1" parent="lQojN_XJNmVnjLz6gcaS-158">
          <mxGeometry x="40" width="160" height="30" as="geometry">
            <mxRectangle width="160" height="30" as="alternateBounds" />
          </mxGeometry>
        </mxCell>
        <mxCell id="lQojN_XJNmVnjLz6gcaS-161" style="shape=tableRow;horizontal=0;startSize=0;swimlaneHead=0;swimlaneBody=0;fillColor=none;collapsible=0;dropTarget=0;points=[[0,0.5],[1,0.5]];portConstraint=eastwest;top=0;left=0;right=0;bottom=0;sketch=1;curveFitting=1;jiggle=2;strokeColor=#d6b656;fontFamily=Comic Sans MS;fontSize=15;" vertex="1" parent="lQojN_XJNmVnjLz6gcaS-145">
          <mxGeometry y="180" width="200" height="30" as="geometry" />
        </mxCell>
        <mxCell id="lQojN_XJNmVnjLz6gcaS-162" style="shape=partialRectangle;connectable=0;fillColor=none;top=0;left=0;bottom=0;right=0;editable=1;overflow=hidden;whiteSpace=wrap;html=1;sketch=1;curveFitting=1;jiggle=2;strokeColor=#d6b656;fontFamily=Comic Sans MS;fontSize=15;" vertex="1" parent="lQojN_XJNmVnjLz6gcaS-161">
          <mxGeometry width="40" height="30" as="geometry">
            <mxRectangle width="40" height="30" as="alternateBounds" />
          </mxGeometry>
        </mxCell>
        <mxCell id="lQojN_XJNmVnjLz6gcaS-163" value="category" style="shape=partialRectangle;connectable=0;fillColor=none;top=0;left=0;bottom=0;right=0;align=left;spacingLeft=6;overflow=hidden;whiteSpace=wrap;html=1;sketch=1;curveFitting=1;jiggle=2;strokeColor=#d6b656;fontFamily=Comic Sans MS;fontSize=15;" vertex="1" parent="lQojN_XJNmVnjLz6gcaS-161">
          <mxGeometry x="40" width="160" height="30" as="geometry">
            <mxRectangle width="160" height="30" as="alternateBounds" />
          </mxGeometry>
        </mxCell>
        <mxCell id="lQojN_XJNmVnjLz6gcaS-164" style="shape=tableRow;horizontal=0;startSize=0;swimlaneHead=0;swimlaneBody=0;fillColor=none;collapsible=0;dropTarget=0;points=[[0,0.5],[1,0.5]];portConstraint=eastwest;top=0;left=0;right=0;bottom=0;sketch=1;curveFitting=1;jiggle=2;strokeColor=#d6b656;fontFamily=Comic Sans MS;fontSize=15;" vertex="1" parent="lQojN_XJNmVnjLz6gcaS-145">
          <mxGeometry y="210" width="200" height="30" as="geometry" />
        </mxCell>
        <mxCell id="lQojN_XJNmVnjLz6gcaS-165" style="shape=partialRectangle;connectable=0;fillColor=none;top=0;left=0;bottom=0;right=0;editable=1;overflow=hidden;whiteSpace=wrap;html=1;sketch=1;curveFitting=1;jiggle=2;strokeColor=#d6b656;fontFamily=Comic Sans MS;fontSize=15;" vertex="1" parent="lQojN_XJNmVnjLz6gcaS-164">
          <mxGeometry width="40" height="30" as="geometry">
            <mxRectangle width="40" height="30" as="alternateBounds" />
          </mxGeometry>
        </mxCell>
        <mxCell id="lQojN_XJNmVnjLz6gcaS-166" value="subcategory" style="shape=partialRectangle;connectable=0;fillColor=none;top=0;left=0;bottom=0;right=0;align=left;spacingLeft=6;overflow=hidden;whiteSpace=wrap;html=1;sketch=1;curveFitting=1;jiggle=2;strokeColor=#d6b656;fontFamily=Comic Sans MS;fontSize=15;" vertex="1" parent="lQojN_XJNmVnjLz6gcaS-164">
          <mxGeometry x="40" width="160" height="30" as="geometry">
            <mxRectangle width="160" height="30" as="alternateBounds" />
          </mxGeometry>
        </mxCell>
        <mxCell id="lQojN_XJNmVnjLz6gcaS-167" style="shape=tableRow;horizontal=0;startSize=0;swimlaneHead=0;swimlaneBody=0;fillColor=none;collapsible=0;dropTarget=0;points=[[0,0.5],[1,0.5]];portConstraint=eastwest;top=0;left=0;right=0;bottom=0;sketch=1;curveFitting=1;jiggle=2;strokeColor=#d6b656;fontFamily=Comic Sans MS;fontSize=15;" vertex="1" parent="lQojN_XJNmVnjLz6gcaS-145">
          <mxGeometry y="240" width="200" height="30" as="geometry" />
        </mxCell>
        <mxCell id="lQojN_XJNmVnjLz6gcaS-168" style="shape=partialRectangle;connectable=0;fillColor=none;top=0;left=0;bottom=0;right=0;editable=1;overflow=hidden;whiteSpace=wrap;html=1;sketch=1;curveFitting=1;jiggle=2;strokeColor=#d6b656;fontFamily=Comic Sans MS;fontSize=15;" vertex="1" parent="lQojN_XJNmVnjLz6gcaS-167">
          <mxGeometry width="40" height="30" as="geometry">
            <mxRectangle width="40" height="30" as="alternateBounds" />
          </mxGeometry>
        </mxCell>
        <mxCell id="lQojN_XJNmVnjLz6gcaS-169" value="maintenance" style="shape=partialRectangle;connectable=0;fillColor=none;top=0;left=0;bottom=0;right=0;align=left;spacingLeft=6;overflow=hidden;whiteSpace=wrap;html=1;sketch=1;curveFitting=1;jiggle=2;strokeColor=#d6b656;fontFamily=Comic Sans MS;fontSize=15;" vertex="1" parent="lQojN_XJNmVnjLz6gcaS-167">
          <mxGeometry x="40" width="160" height="30" as="geometry">
            <mxRectangle width="160" height="30" as="alternateBounds" />
          </mxGeometry>
        </mxCell>
        <mxCell id="lQojN_XJNmVnjLz6gcaS-170" style="shape=tableRow;horizontal=0;startSize=0;swimlaneHead=0;swimlaneBody=0;fillColor=none;collapsible=0;dropTarget=0;points=[[0,0.5],[1,0.5]];portConstraint=eastwest;top=0;left=0;right=0;bottom=0;sketch=1;curveFitting=1;jiggle=2;strokeColor=#d6b656;fontFamily=Comic Sans MS;fontSize=15;" vertex="1" parent="lQojN_XJNmVnjLz6gcaS-145">
          <mxGeometry y="270" width="200" height="30" as="geometry" />
        </mxCell>
        <mxCell id="lQojN_XJNmVnjLz6gcaS-171" style="shape=partialRectangle;connectable=0;fillColor=none;top=0;left=0;bottom=0;right=0;editable=1;overflow=hidden;whiteSpace=wrap;html=1;sketch=1;curveFitting=1;jiggle=2;strokeColor=#d6b656;fontFamily=Comic Sans MS;fontSize=15;" vertex="1" parent="lQojN_XJNmVnjLz6gcaS-170">
          <mxGeometry width="40" height="30" as="geometry">
            <mxRectangle width="40" height="30" as="alternateBounds" />
          </mxGeometry>
        </mxCell>
        <mxCell id="lQojN_XJNmVnjLz6gcaS-172" value="product_line" style="shape=partialRectangle;connectable=0;fillColor=none;top=0;left=0;bottom=0;right=0;align=left;spacingLeft=6;overflow=hidden;whiteSpace=wrap;html=1;sketch=1;curveFitting=1;jiggle=2;strokeColor=#d6b656;fontFamily=Comic Sans MS;fontSize=15;" vertex="1" parent="lQojN_XJNmVnjLz6gcaS-170">
          <mxGeometry x="40" width="160" height="30" as="geometry">
            <mxRectangle width="160" height="30" as="alternateBounds" />
          </mxGeometry>
        </mxCell>
        <mxCell id="lQojN_XJNmVnjLz6gcaS-173" style="shape=tableRow;horizontal=0;startSize=0;swimlaneHead=0;swimlaneBody=0;fillColor=none;collapsible=0;dropTarget=0;points=[[0,0.5],[1,0.5]];portConstraint=eastwest;top=0;left=0;right=0;bottom=0;sketch=1;curveFitting=1;jiggle=2;strokeColor=#d6b656;fontFamily=Comic Sans MS;fontSize=15;" vertex="1" parent="lQojN_XJNmVnjLz6gcaS-145">
          <mxGeometry y="300" width="200" height="30" as="geometry" />
        </mxCell>
        <mxCell id="lQojN_XJNmVnjLz6gcaS-174" style="shape=partialRectangle;connectable=0;fillColor=none;top=0;left=0;bottom=0;right=0;editable=1;overflow=hidden;whiteSpace=wrap;html=1;sketch=1;curveFitting=1;jiggle=2;strokeColor=#d6b656;fontFamily=Comic Sans MS;fontSize=15;" vertex="1" parent="lQojN_XJNmVnjLz6gcaS-173">
          <mxGeometry width="40" height="30" as="geometry">
            <mxRectangle width="40" height="30" as="alternateBounds" />
          </mxGeometry>
        </mxCell>
        <mxCell id="lQojN_XJNmVnjLz6gcaS-175" value="start_date" style="shape=partialRectangle;connectable=0;fillColor=none;top=0;left=0;bottom=0;right=0;align=left;spacingLeft=6;overflow=hidden;whiteSpace=wrap;html=1;sketch=1;curveFitting=1;jiggle=2;strokeColor=#d6b656;fontFamily=Comic Sans MS;fontSize=15;" vertex="1" parent="lQojN_XJNmVnjLz6gcaS-173">
          <mxGeometry x="40" width="160" height="30" as="geometry">
            <mxRectangle width="160" height="30" as="alternateBounds" />
          </mxGeometry>
        </mxCell>
        <mxCell id="lQojN_XJNmVnjLz6gcaS-176" value="" style="edgeStyle=entityRelationEdgeStyle;fontSize=12;html=1;endArrow=ERzeroToMany;startArrow=ERmandOne;rounded=0;exitX=1;exitY=0.5;exitDx=0;exitDy=0;entryX=0;entryY=0.5;entryDx=0;entryDy=0;shadow=1;" edge="1" parent="1" source="lQojN_XJNmVnjLz6gcaS-42" target="lQojN_XJNmVnjLz6gcaS-124">
          <mxGeometry width="100" height="100" relative="1" as="geometry">
            <mxPoint x="240" y="390" as="sourcePoint" />
            <mxPoint x="320" y="420" as="targetPoint" />
          </mxGeometry>
        </mxCell>
        <mxCell id="lQojN_XJNmVnjLz6gcaS-177" value="" style="edgeStyle=entityRelationEdgeStyle;fontSize=12;html=1;endArrow=ERzeroToOne;startArrow=ERmandOne;rounded=0;entryX=1;entryY=0.5;entryDx=0;entryDy=0;exitX=0;exitY=0.5;exitDx=0;exitDy=0;shadow=1;" edge="1" parent="1" source="lQojN_XJNmVnjLz6gcaS-146" target="lQojN_XJNmVnjLz6gcaS-121">
          <mxGeometry width="100" height="100" relative="1" as="geometry">
            <mxPoint x="340" y="800" as="sourcePoint" />
            <mxPoint x="440" y="700" as="targetPoint" />
          </mxGeometry>
        </mxCell>
        <mxCell id="lQojN_XJNmVnjLz6gcaS-178" value="&lt;div style=&quot;line-height: 100%;&quot;&gt;&lt;h1 style=&quot;margin-top: 0px; line-height: 40%;&quot;&gt;&lt;font style=&quot;font-size: 14px; line-height: 40%;&quot;&gt;&lt;u&gt;marital_status&lt;/u&gt;&lt;/font&gt;&lt;/h1&gt;&lt;p&gt;&lt;/p&gt;&lt;ul&gt;&lt;li&gt;Married&lt;/li&gt;&lt;li&gt;Single&lt;/li&gt;&lt;/ul&gt;&lt;p&gt;&lt;/p&gt;&lt;/div&gt;" style="text;html=1;whiteSpace=wrap;overflow=hidden;rounded=0;fontFamily=Comic Sans MS;" vertex="1" parent="1">
          <mxGeometry x="260" y="640" width="110" height="60" as="geometry" />
        </mxCell>
        <mxCell id="lQojN_XJNmVnjLz6gcaS-179" value="" style="endArrow=none;dashed=1;html=1;rounded=0;entryX=0.182;entryY=0.104;entryDx=0;entryDy=0;exitX=0.815;exitY=1.011;exitDx=0;exitDy=0;exitPerimeter=0;entryPerimeter=0;sketch=1;curveFitting=1;jiggle=2;" edge="1" parent="1" source="lQojN_XJNmVnjLz6gcaS-60" target="lQojN_XJNmVnjLz6gcaS-188">
          <mxGeometry width="50" height="50" relative="1" as="geometry">
            <mxPoint x="60" y="540" as="sourcePoint" />
            <mxPoint x="20" y="710" as="targetPoint" />
          </mxGeometry>
        </mxCell>
        <mxCell id="lQojN_XJNmVnjLz6gcaS-180" value="&lt;div style=&quot;line-height: 40%;&quot;&gt;&lt;h1 style=&quot;margin-top: 0px; line-height: 40%;&quot;&gt;&lt;span style=&quot;font-size: 14px; line-height: 40%;&quot;&gt;&lt;u&gt;Sales Calculation&lt;/u&gt;&lt;/span&gt;&lt;/h1&gt;&lt;div&gt;&lt;span style=&quot;font-size: 14px; line-height: 100%;&quot;&gt;Sales = Quantity * price&lt;/span&gt;&lt;/div&gt;&lt;/div&gt;" style="text;html=1;whiteSpace=wrap;overflow=hidden;rounded=0;fontFamily=Comic Sans MS;" vertex="1" parent="1">
          <mxGeometry x="490" y="650" width="180" height="70" as="geometry" />
        </mxCell>
        <mxCell id="lQojN_XJNmVnjLz6gcaS-181" value="" style="endArrow=none;dashed=1;html=1;rounded=0;entryX=1;entryY=0.25;entryDx=0;entryDy=0;exitX=0.382;exitY=-0.023;exitDx=0;exitDy=0;exitPerimeter=0;sketch=1;curveFitting=1;jiggle=2;" edge="1" parent="1" source="lQojN_XJNmVnjLz6gcaS-185">
          <mxGeometry width="50" height="50" relative="1" as="geometry">
            <mxPoint x="560" y="565" as="sourcePoint" />
            <mxPoint x="520" y="550" as="targetPoint" />
          </mxGeometry>
        </mxCell>
        <mxCell id="lQojN_XJNmVnjLz6gcaS-182" value="&lt;div style=&quot;line-height: 40%;&quot;&gt;&lt;h1 style=&quot;margin-top: 0px; line-height: 40%;&quot;&gt;&lt;span style=&quot;font-size: 14px;&quot;&gt;&lt;u&gt;Maintenance&lt;/u&gt;&lt;/span&gt;&lt;/h1&gt;&lt;div&gt;&lt;ul&gt;&lt;li&gt;&lt;span style=&quot;font-size: 14px; line-height: 100%;&quot;&gt;Yes&lt;/span&gt;&lt;/li&gt;&lt;li&gt;&lt;span style=&quot;font-size: 14px; line-height: 100%;&quot;&gt;No&lt;/span&gt;&lt;/li&gt;&lt;/ul&gt;&lt;/div&gt;&lt;/div&gt;" style="text;html=1;whiteSpace=wrap;overflow=hidden;rounded=0;fontFamily=Comic Sans MS;" vertex="1" parent="1">
          <mxGeometry x="930" y="580" width="100" height="70" as="geometry" />
        </mxCell>
        <mxCell id="lQojN_XJNmVnjLz6gcaS-183" value="" style="endArrow=none;dashed=1;html=1;rounded=0;entryX=1;entryY=0.25;entryDx=0;entryDy=0;sketch=1;curveFitting=1;jiggle=2;exitX=0;exitY=0.5;exitDx=0;exitDy=0;" edge="1" parent="1" source="lQojN_XJNmVnjLz6gcaS-184">
          <mxGeometry width="50" height="50" relative="1" as="geometry">
            <mxPoint x="900" y="595" as="sourcePoint" />
            <mxPoint x="860" y="580" as="targetPoint" />
          </mxGeometry>
        </mxCell>
        <mxCell id="lQojN_XJNmVnjLz6gcaS-185" value="" style="ellipse;whiteSpace=wrap;html=1;sketch=1;curveFitting=1;jiggle=2;rotation=5;fillColor=none;" vertex="1" parent="1">
          <mxGeometry x="480.02" y="644.56" width="180" height="80" as="geometry" />
        </mxCell>
        <mxCell id="lQojN_XJNmVnjLz6gcaS-188" value="" style="ellipse;whiteSpace=wrap;html=1;sketch=1;curveFitting=1;jiggle=2;rotation=0;fillColor=none;" vertex="1" parent="1">
          <mxGeometry x="250" y="625" width="130" height="90" as="geometry" />
        </mxCell>
        <mxCell id="lQojN_XJNmVnjLz6gcaS-191" value="&lt;font&gt;Sales Data Mart &lt;font style=&quot;font-size: 15px;&quot;&gt;( star schema )&lt;/font&gt;&lt;/font&gt;" style="text;html=1;align=center;verticalAlign=middle;whiteSpace=wrap;rounded=0;fontFamily=Comic Sans MS;fontSize=18;" vertex="1" parent="1">
          <mxGeometry x="402.5" y="270" width="275" height="30" as="geometry" />
        </mxCell>
      </root>
    </mxGraphModel>
  </diagram>
</mxfile>
